<svg width="25" height="20" viewBox="0 0 25 20" fill="none" xmlns="http://www.w3.org/2000/svg">
<path id="Vector" d="M20.9592 16.3759C20.9592 16.671 20.7595 16.8837 20.4731 16.8837C20.178 16.8837 19.987 16.658 19.987 16.3759C19.987 16.0937 20.178 15.8681 20.4731 15.8681C20.7595 15.8681 20.9592 16.0937 20.9592 16.3759ZM7.46962 15.8681C7.16146 15.8681 6.98351 16.0937 6.98351 16.3759C6.98351 16.658 7.16146 16.8837 7.46962 16.8837C7.75174 16.8837 7.94271 16.671 7.94271 16.3759C7.93837 16.0937 7.75174 15.8681 7.46962 15.8681ZM12.5694 15.855C12.3351 15.855 12.1918 16.0069 12.1571 16.2326H12.9861C12.947 15.9852 12.7951 15.855 12.5694 15.855ZM17.2483 15.8681C16.9531 15.8681 16.7752 16.0937 16.7752 16.3759C16.7752 16.658 16.9531 16.8837 17.2483 16.8837C17.5434 16.8837 17.7344 16.671 17.7344 16.3759C17.7344 16.0937 17.5434 15.8681 17.2483 15.8681ZM21.8446 17.0009C21.8446 17.0139 21.8576 17.0226 21.8576 17.0486C21.8576 17.0616 21.8446 17.0703 21.8446 17.0964C21.8316 17.1094 21.8316 17.1181 21.8229 17.1311C21.8099 17.1441 21.8012 17.1528 21.7752 17.1528C21.7622 17.1658 21.7535 17.1658 21.7274 17.1658C21.7144 17.1658 21.7057 17.1658 21.6797 17.1528C21.6667 17.1528 21.658 17.1398 21.645 17.1311C21.6319 17.1181 21.6233 17.1094 21.6233 17.0964C21.6102 17.0746 21.6102 17.0616 21.6102 17.0486C21.6102 17.0269 21.6102 17.0139 21.6233 17.0009C21.6233 16.9792 21.6363 16.9661 21.645 16.9531C21.658 16.9401 21.6667 16.9401 21.6797 16.9314C21.7014 16.9184 21.7144 16.9184 21.7274 16.9184C21.7491 16.9184 21.7622 16.9184 21.7752 16.9314C21.7969 16.9444 21.8099 16.9444 21.8229 16.9531C21.8359 16.9618 21.8316 16.9792 21.8446 17.0009ZM21.7491 17.0616C21.7708 17.0616 21.7708 17.0486 21.7839 17.0486C21.7969 17.0356 21.7969 17.0269 21.7969 17.0139C21.7969 17.0009 21.7969 16.9922 21.7839 16.9792C21.7708 16.9792 21.7622 16.9661 21.7361 16.9661H21.6667V17.1181H21.7014V17.0573H21.7144L21.7622 17.1181H21.7969L21.7491 17.0616ZM25 2.08333V17.3611C25 18.5113 24.0668 19.4444 22.9167 19.4444H2.08333C0.93316 19.4444 0 18.5113 0 17.3611V2.08333C0 0.93316 0.93316 0 2.08333 0H22.9167C24.0668 0 25 0.93316 25 2.08333ZM2.77778 8.14236C2.77778 11.4627 5.47309 14.1536 8.78906 14.1536C9.96962 14.1536 11.1285 13.7977 12.1094 13.151C8.94531 10.5773 8.96701 5.72049 12.1094 3.1467C11.1285 2.49566 9.96962 2.1441 8.78906 2.1441C5.47309 2.13976 2.77778 4.83507 2.77778 8.14236ZM12.5 12.8646C15.5599 10.4774 15.5469 5.82465 12.5 3.42448C9.45312 5.82465 9.4401 10.4818 12.5 12.8646ZM6.32378 16.1762C6.32378 15.7986 6.07639 15.5512 5.68576 15.5382C5.48611 15.5382 5.27344 15.599 5.13021 15.8203C5.02604 15.6424 4.84809 15.5382 4.60069 15.5382C4.43576 15.5382 4.27083 15.599 4.14062 15.7726V15.5816H3.78472V17.1745H4.14062C4.14062 16.3542 4.03212 15.8637 4.53125 15.8637C4.97396 15.8637 4.88715 16.3064 4.88715 17.1745H5.23003C5.23003 16.3802 5.12153 15.8637 5.62066 15.8637C6.06337 15.8637 5.97656 16.2977 5.97656 17.1745H6.33246V16.1762H6.32378ZM8.27257 15.5816H7.92969V15.7726C7.8125 15.6293 7.64757 15.5382 7.42187 15.5382C6.97483 15.5382 6.63194 15.8941 6.63194 16.3759C6.63194 16.862 6.97483 17.2135 7.42187 17.2135C7.64757 17.2135 7.8125 17.1311 7.92969 16.9792V17.1788H8.27257V15.5816ZM10.0304 16.6927C10.0304 16.0417 9.03646 16.3368 9.03646 16.033C9.03646 15.7856 9.55295 15.8246 9.83941 15.9852L9.98264 15.7031C9.57465 15.4384 8.67188 15.4427 8.67188 16.059C8.67188 16.6797 9.6658 16.4193 9.6658 16.7101C9.6658 16.9835 9.07986 16.9618 8.76736 16.7448L8.61545 17.0182C9.10156 17.3481 10.0304 17.2786 10.0304 16.6927ZM11.5668 17.0964L11.4714 16.8012C11.3064 16.8924 10.9418 16.9922 10.9418 16.6233V15.9028H11.5104V15.5816H10.9418V15.0955H10.5859V15.5816H10.2561V15.8984H10.5859V16.6233C10.5859 17.3871 11.3368 17.2483 11.5668 17.0964ZM12.1441 16.5148H13.3377C13.3377 15.8116 13.0165 15.5339 12.5825 15.5339C12.1224 15.5339 11.7925 15.8767 11.7925 16.3715C11.7925 17.2613 12.7734 17.4089 13.2595 16.9878L13.0946 16.7274C12.7561 17.0052 12.2439 16.9792 12.1441 16.5148ZM14.7092 15.5816C14.5095 15.4948 14.2057 15.5035 14.0495 15.7726V15.5816H13.6936V17.1745H14.0495V16.276C14.0495 15.7726 14.4618 15.8377 14.605 15.9115L14.7092 15.5816ZM15.1693 16.3759C15.1693 15.8811 15.6727 15.7205 16.0677 16.0113L16.2326 15.7292C15.7292 15.3342 14.8134 15.5512 14.8134 16.3802C14.8134 17.2396 15.7856 17.4132 16.2326 17.0312L16.0677 16.7491C15.6684 17.0312 15.1693 16.862 15.1693 16.3759ZM18.0642 15.5816H17.7083V15.7726C17.3481 15.2951 16.4106 15.5642 16.4106 16.3759C16.4106 17.2092 17.3828 17.4479 17.7083 16.9792V17.1788H18.0642V15.5816ZM19.5269 15.5816C19.4227 15.5295 19.0495 15.4557 18.8672 15.7726V15.5816H18.5243V17.1745H18.8672V16.276C18.8672 15.7986 19.2578 15.829 19.4227 15.9115L19.5269 15.5816ZM21.276 14.9349H20.9332V15.7726C20.5773 15.2995 19.6354 15.5512 19.6354 16.3759C19.6354 17.2179 20.612 17.4436 20.9332 16.9792V17.1788H21.276V14.9349ZM21.6059 11.6753V11.875H21.6406V11.6753H21.7231V11.6406H21.5234V11.6753H21.6059ZM21.8924 17.0486C21.8924 17.0269 21.8924 17.0009 21.8793 16.9792C21.8663 16.9661 21.8576 16.9444 21.8446 16.9314C21.8316 16.9184 21.8099 16.9097 21.7969 16.8967C21.7752 16.8967 21.7491 16.8837 21.7274 16.8837C21.7144 16.8837 21.6927 16.8967 21.6667 16.8967C21.645 16.9097 21.6319 16.9184 21.6189 16.9314C21.5972 16.9444 21.5842 16.9661 21.5842 16.9792C21.5712 17.0009 21.5712 17.0269 21.5712 17.0486C21.5712 17.0616 21.5712 17.0833 21.5842 17.1094C21.5842 17.1224 21.5972 17.1441 21.6189 17.1571C21.6319 17.1701 21.6406 17.1788 21.6667 17.1918C21.6884 17.2049 21.7144 17.2049 21.7274 17.2049C21.7491 17.2049 21.7752 17.2049 21.7969 17.1918C21.8099 17.1788 21.8316 17.1701 21.8446 17.1571C21.8576 17.1441 21.8663 17.1224 21.8793 17.1094C21.8924 17.0833 21.8924 17.0616 21.8924 17.0486ZM22.0312 11.6363H21.9705L21.901 11.7882L21.8316 11.6363H21.7708V11.8707H21.8056V11.6927L21.875 11.8446H21.9227L21.9835 11.6927V11.8707H22.0312V11.6363ZM22.2222 8.14236C22.2222 4.83507 19.5269 2.13976 16.2109 2.13976C15.0304 2.13976 13.8715 2.49566 12.8906 3.14236C16.02 5.71615 16.0677 10.5859 12.8906 13.1467C13.8715 13.7977 15.0391 14.1493 16.2109 14.1493C19.5269 14.1536 22.2222 11.4627 22.2222 8.14236Z" fill="white"/>
</svg>
