<svg width="19" height="25" viewBox="0 0 19 25" fill="none" xmlns="http://www.w3.org/2000/svg">
<path id="Vector" d="M5.85936 3.51562C5.85936 1.57397 7.43334 0 9.37499 0C11.3166 0 12.8906 1.57397 12.8906 3.51562C12.8906 5.45723 11.3166 7.03125 9.37499 7.03125C7.43334 7.03125 5.85936 5.45723 5.85936 3.51562ZM18.2923 3.58267C17.6822 2.97246 16.6928 2.97246 16.0827 3.58267L11.8528 7.8125H6.89716L2.66732 3.58267C2.05717 2.97246 1.06781 2.97246 0.457654 3.58267C-0.152551 4.19287 -0.152551 5.18218 0.457654 5.79238L5.07811 10.4128V23.4375C5.07811 24.3004 5.77767 25 6.64061 25H7.42186C8.2848 25 8.98436 24.3004 8.98436 23.4375V17.9688H9.76561V23.4375C9.76561 24.3004 10.4652 25 11.3281 25H12.1094C12.9723 25 13.6719 24.3004 13.6719 23.4375V10.4128L18.2923 5.79233C18.9025 5.18213 18.9025 4.19287 18.2923 3.58267Z" fill="#505050"/>
</svg>
