<svg width="36" height="24" viewBox="0 0 36 24" fill="none" xmlns="http://www.w3.org/2000/svg">
<path id="Vector" d="M8 6H28V18H8V6ZM33 12C33 13.6569 34.3431 15 36 15V21C36 22.6569 34.6569 24 33 24H3C1.34312 24 0 22.6569 0 21V15C1.65688 15 3 13.6569 3 12C3 10.3431 1.65688 9 0 9V3C0 1.34312 1.34312 0 3 0H33C34.6569 0 36 1.34312 36 3V9C34.3431 9 33 10.3431 33 12ZM30 5.5C30 4.67156 29.3284 4 28.5 4H7.5C6.67156 4 6 4.67156 6 5.5V18.5C6 19.3284 6.67156 20 7.5 20H28.5C29.3284 20 30 19.3284 30 18.5V5.5Z" fill="#505050"/>
</svg>
