<svg width="20" height="24" viewBox="0 0 20 24" fill="none" xmlns="http://www.w3.org/2000/svg">
<path id="Vector" d="M10.6576 11.9819L18.8442 20.1686C19.4101 20.7344 19.4101 21.6494 18.8442 22.2092L17.4838 23.5696C16.918 24.1354 16.003 24.1354 15.4432 23.5696L9.63431 17.7728L3.83145 23.5756C3.26561 24.1415 2.35064 24.1415 1.79082 23.5756L0.424379 22.2152C-0.14146 21.6494 -0.14146 20.7344 0.424379 20.1746L8.61099 11.988C9.17682 11.4161 10.0918 11.4161 10.6576 11.9819ZM8.61099 0.424379L0.424379 8.61099C-0.14146 9.17683 -0.14146 10.0918 0.424379 10.6516L1.7848 12.012C2.35064 12.5779 3.26561 12.5779 3.82543 12.012L9.62829 6.20918L15.4311 12.012C15.997 12.5779 16.912 12.5779 17.4718 12.012L18.8322 10.6516C19.398 10.0858 19.398 9.17081 18.8322 8.61099L10.6456 0.424379C10.0918 -0.14146 9.17682 -0.14146 8.61099 0.424379Z" fill="white"/>
</svg>
