<svg width="16" height="22" viewBox="0 0 16 22" fill="none" xmlns="http://www.w3.org/2000/svg">
<path id="Vector" d="M15.0391 3.125C15.3626 3.125 15.625 2.86265 15.625 2.53906V0.585938C15.625 0.262354 15.3626 0 15.0391 0H0.585938C0.262354 0 0 0.262354 0 0.585938V2.7709C0 3.09448 0.262354 3.35684 0.585938 3.35684H4.75C6.0834 3.35684 7.10649 3.84307 7.72705 4.6875H0.585938C0.262354 4.6875 0 4.94985 0 5.27344V7.22656C0 7.55015 0.262354 7.8125 0.585938 7.8125H8.33774C8.03418 9.57451 6.72832 10.6754 4.6875 10.6754H0.585938C0.262354 10.6754 0 10.9377 0 11.2613V13.8498C0 14.0133 0.0683594 14.1694 0.188525 14.2804L8.2477 21.7196C8.35594 21.8195 8.49783 21.875 8.64512 21.875H12.6765C13.2099 21.875 13.4658 21.2203 13.0739 20.8585L5.70659 14.0579C9.44189 13.9437 12.1101 11.4507 12.4604 7.8125H15.0391C15.3626 7.8125 15.625 7.55015 15.625 7.22656V5.27344C15.625 4.94985 15.3626 4.6875 15.0391 4.6875H12.1733C12.0031 4.12397 11.769 3.60127 11.4774 3.125H15.0391Z" fill="white"/>
</svg>
